<?xml version="1.0" encoding="utf-8"?>
<!-- Generator: Adobe Illustrator 24.1.0, SVG Export Plug-In . SVG Version: 6.00 Build 0)  -->
<svg version="1.1" id="Ebene_1" xmlns="http://www.w3.org/2000/svg" xmlns:xlink="http://www.w3.org/1999/xlink" x="0px" y="0px"
	 viewBox="0 0 595.28 841.89" style="enable-background:new 0 0 595.28 841.89;" xml:space="preserve">
<style type="text/css">
	.st0{fill:#ADCA58;}
	.st1{fill:#0392CF;}
</style>
<g>
	<path class="st0" d="M289.85,236.04c1.29,0,2.58,0.05,3.87-0.01c1.34-0.07,2.67-0.23,4-0.38c1.31-0.15,2.62-0.31,3.93-0.5
		c0.93-0.14,1.86-0.33,2.78-0.52c1.27-0.27,2.55-0.53,3.8-0.87c1.4-0.38,2.78-0.82,4.15-1.29c1.67-0.58,3.34-1.18,4.99-1.83
		c2.4-0.95,4.71-2.09,6.98-3.33c2.94-1.61,5.75-3.42,8.43-5.41c2.02-1.5,3.97-3.09,5.79-4.83c1.15-1.1,2.32-2.18,3.4-3.34
		c1.36-1.47,2.68-2.98,3.93-4.54c1.22-1.52,2.38-3.08,3.49-4.68c1.92-2.77,3.6-5.68,5.06-8.71c1.16-2.39,2.22-4.83,3.06-7.36
		c0.28-0.84,0.59-1.67,0.86-2.51c0.09-0.28,0.18-0.37,0.48-0.25c0.93,0.37,1.87,0.72,2.81,1.07c0.3,0.11,0.44,0.28,0.32,0.6
		c-0.6,1.66-1.15,3.35-1.8,4.99c-1.25,3.17-2.73,6.24-4.42,9.2c-1.76,3.11-3.7,6.1-5.92,8.9c-1.31,1.64-2.61,3.29-4.03,4.83
		c-1.58,1.71-3.25,3.34-4.95,4.93c-2.63,2.46-5.43,4.71-8.45,6.67c-2.19,1.42-4.39,2.81-6.67,4.08c-2.27,1.26-4.61,2.4-7.05,3.32
		c-1.97,0.75-3.94,1.53-5.94,2.18c-1.74,0.57-3.52,1-5.29,1.44c-1.28,0.32-2.57,0.61-3.87,0.83c-1.75,0.3-3.51,0.54-5.27,0.76
		c-1.54,0.19-3.08,0.31-4.62,0.43c-0.62,0.05-1.25,0.03-1.88,0.03c-1.86,0-3.72,0.04-5.57-0.03c-1.51-0.06-3.01-0.22-4.52-0.38
		c-1.37-0.14-2.74-0.32-4.1-0.52c-1.03-0.15-2.04-0.37-3.06-0.57c-0.85-0.17-1.7-0.35-2.54-0.55c-0.95-0.23-1.91-0.45-2.84-0.75
		c-2.38-0.78-4.77-1.55-7.12-2.42c-2.64-0.97-5.17-2.2-7.66-3.51c-3.03-1.59-5.94-3.38-8.7-5.41c-1.86-1.37-3.7-2.77-5.41-4.3
		c-2.13-1.9-4.2-3.89-6.17-5.96c-1.57-1.65-3.01-3.44-4.4-5.25c-1.38-1.79-2.69-3.65-3.91-5.56c-1.98-3.09-3.7-6.33-5.19-9.7
		c-1.07-2.44-2.03-4.92-2.86-7.44c-0.85-2.6-1.53-5.25-2.08-7.92c-0.26-1.24-0.5-2.48-0.67-3.73c-0.21-1.49-0.37-3-0.49-4.5
		c-0.12-1.45-0.19-2.9-0.25-4.36c-0.06-1.51-0.13-3.03-0.08-4.54c0.06-1.98,0.18-3.97,0.37-5.94c0.14-1.46,0.4-2.92,0.63-4.37
		c0.22-1.38,0.45-2.75,0.73-4.12c0.2-1,0.46-1.98,0.74-2.96c0.42-1.5,0.82-3.01,1.32-4.49c0.58-1.69,1.23-3.36,1.9-5.02
		c1.48-3.67,3.3-7.18,5.36-10.56c1.71-2.81,3.62-5.48,5.69-8.05c2.26-2.81,4.72-5.43,7.35-7.89c2.17-2.03,4.43-3.96,6.88-5.65
		c1.89-1.31,3.8-2.61,5.76-3.82c2.95-1.83,6.05-3.4,9.26-4.73c1.69-0.7,3.39-1.4,5.12-1.98c1.91-0.64,3.85-1.17,5.8-1.69
		c1.49-0.4,3-0.77,4.52-1.04c1.72-0.32,3.47-0.53,5.2-0.76c1.23-0.16,2.47-0.31,3.71-0.41c0.73-0.06,1.48-0.06,2.22-0.06
		c2.71,0.01,5.42-0.01,8.13,0.06c1.24,0.03,2.48,0.22,3.72,0.37c1.29,0.15,2.59,0.31,3.87,0.52c1.08,0.17,2.15,0.4,3.22,0.64
		c1.34,0.3,2.69,0.58,4.02,0.96c1.85,0.53,3.69,1.09,5.51,1.72c1.62,0.56,3.21,1.21,4.79,1.88c2.58,1.08,5.07,2.36,7.5,3.75
		c3.03,1.73,5.94,3.63,8.66,5.81c1.86,1.49,3.65,3.07,5.43,4.64c0.96,0.85,1.88,1.76,2.78,2.68c0.87,0.89,1.7,1.83,2.54,2.76
		c0.07,0.07,0.09,0.19,0.13,0.29c-0.12,0.03-0.25,0.1-0.35,0.07c-0.77-0.17-1.55-0.35-2.31-0.56c-0.35-0.1-0.64-0.14-0.96,0.1
		c-0.29,0.21-0.64,0.33-0.95,0.5c-0.19,0.1-0.31,0.09-0.48-0.09c-1.99-2.11-4.13-4.07-6.36-5.92c-2.87-2.38-5.92-4.52-9.12-6.42
		c-2.93-1.73-5.96-3.26-9.1-4.55c-1.86-0.76-3.75-1.48-5.67-2.09c-1.96-0.62-3.95-1.13-5.95-1.61c-1.56-0.37-3.14-0.67-4.72-0.91
		c-1.51-0.23-3.04-0.33-4.56-0.51c-2.84-0.34-5.7-0.35-8.56-0.3c-1.54,0.03-3.08,0.17-4.62,0.3c-1.49,0.13-2.97,0.29-4.45,0.49
		c-0.95,0.13-1.9,0.3-2.84,0.51c-1.88,0.42-3.78,0.79-5.62,1.33c-2.33,0.69-4.64,1.46-6.9,2.34c-2,0.77-3.96,1.69-5.89,2.63
		c-2.38,1.15-4.68,2.46-6.87,3.95c-1.73,1.18-3.46,2.38-5.14,3.63c-1.12,0.84-2.19,1.75-3.21,2.7c-1.68,1.55-3.37,3.11-4.94,4.77
		c-1.54,1.64-2.97,3.38-4.38,5.13c-1.75,2.18-3.32,4.5-4.76,6.9c-1.48,2.48-2.87,5.01-4.02,7.67c-0.67,1.57-1.35,3.15-1.94,4.75
		c-0.55,1.49-1.03,3-1.47,4.53c-0.45,1.57-0.89,3.16-1.21,4.76c-0.42,2.13-0.79,4.27-1.06,6.42c-0.24,1.85-0.37,3.72-0.46,5.59
		c-0.09,1.96-0.16,3.94-0.08,5.9c0.09,2.28,0.28,4.56,0.57,6.83c0.26,2,0.65,3.99,1.08,5.96c0.41,1.89,0.87,3.78,1.44,5.63
		c0.89,2.88,1.95,5.7,3.21,8.45c1.43,3.11,3.05,6.12,4.9,9.01c1.91,2.98,4.03,5.81,6.35,8.49c2.09,2.4,4.33,4.66,6.71,6.77
		c3.52,3.12,7.31,5.87,11.39,8.21c3.14,1.81,6.38,3.44,9.78,4.71c1.57,0.59,3.13,1.21,4.73,1.7c1.82,0.56,3.67,0.99,5.51,1.46
		c0.79,0.2,1.58,0.39,2.37,0.53c1.45,0.26,2.9,0.5,4.36,0.69c1.27,0.17,2.55,0.28,3.83,0.37c1.85,0.13,3.7,0.21,5.55,0.32
		C289.84,236.13,289.85,236.09,289.85,236.04z"/>
	<path class="st0" d="M300,125.17c0.87,0.05,1.73,0.09,2.6,0.15c1.03,0.08,2.07,0.19,3.1,0.28c1.43,0.12,2.86,0.23,4.29,0.36
		c0.4,0.04,0.51,0.18,0.49,0.54c-0.04,0.49-0.08,0.98-0.1,1.47c-0.08,1.93-0.16,3.85-0.24,5.78c-0.07,1.62-0.15,3.25-0.23,4.87
		c-0.08,1.6-0.15,3.21-0.23,4.81c-0.07,1.57-0.15,3.13-0.23,4.7c-0.11,2.38-0.22,4.76-0.34,7.13c-0.07,1.51-0.15,3.02-0.23,4.53
		c-0.08,1.6-0.15,3.21-0.23,4.81c-0.07,1.47-0.14,2.94-0.23,4.41c-0.1,1.66-0.22,3.31-0.31,4.97c-0.06,1.11-0.08,2.23-0.15,3.34
		c-0.13,2.03-0.2,4.07-0.51,6.09c-0.34,2.22-0.89,4.37-1.93,6.36c-1.42,2.72-3.6,4.58-6.5,5.6c-2.58,0.91-5.25,1.05-7.95,0.97
		c-1.86-0.06-3.69-0.29-5.49-0.77c-2.61-0.69-4.95-1.86-6.81-3.86c-1.44-1.55-2.42-3.38-3.03-5.4c-0.53-1.74-0.91-3.51-0.95-5.34
		c-0.05-1.91-0.18-3.83-0.07-5.73c0.14-2.37,0.48-4.73,0.74-7.09c0.18-1.56,0.37-3.11,0.56-4.67c0.19-1.56,0.39-3.11,0.57-4.66
		c0.2-1.74,0.38-3.49,0.58-5.24c0.26-2.27,0.53-4.54,0.79-6.81c0.03-0.24,0.03-0.49,0.05-0.74c0.03-0.35,0.17-0.57,0.57-0.52
		c0.02,0,0.04,0,0.06,0c3.32,0,6.63,0.01,9.95,0.01c0.18,0.02,0.37,0.05,0.55,0.06c0.94,0.01,1.88,0,2.82,0
		c-0.51,2.4-1.04,4.8-1.54,7.21c-0.51,2.46-1.02,4.92-1.5,7.39c-0.35,1.78-0.66,3.57-0.98,5.35c-0.41,2.34-0.85,4.68-1.21,7.03
		c-0.19,1.25-0.23,2.52-0.38,3.78c-0.17,1.41-0.01,2.79,0.36,4.15c0.42,1.55,1.34,2.69,2.92,3.21c0.98,0.32,1.99,0.33,2.98,0.21
		c1.76-0.21,3.05-1.11,3.84-2.73c0.69-1.41,0.97-2.9,1.06-4.43c0.09-1.62,0.11-3.25,0.11-4.88c0-5.17-0.01-10.35-0.03-15.52
		c-0.01-3.28-0.05-6.55-0.07-9.83c-0.01-2.27-0.02-4.55-0.04-6.82c-0.03-3.16-0.06-6.32-0.09-9.48c0-0.09-0.01-0.19-0.01-0.28
		c-0.02-1.57-0.04-3.14-0.06-4.71c0.69,0.2,1.36,0.44,2.06,0.57C300.05,125.93,300.1,125.82,300,125.17z"/>
	<path class="st0" d="M244.64,151.81c0-0.68-0.01-1.36-0.01-2.05c0-0.57,0.02-0.59,0.56-0.59c3.45-0.01,6.9-0.02,10.35-0.04
		c0.36,0,0.52,0.08,0.5,0.47c-0.09,1.79-0.15,3.59-0.23,5.38c-0.02,0.45-0.03,0.91-0.04,1.36c-0.03,1.21-0.06,2.42-0.11,3.63
		c-0.03,0.7-0.09,1.39-0.14,2.09c-0.01,0.1,0,0.21,0,0.31c0.04,0.02,0.07,0.03,0.11,0.05c0.17-0.25,0.35-0.49,0.49-0.75
		c1.65-2.98,3.29-5.96,4.94-8.93c1.26-2.28,2.54-4.56,3.8-6.84c0.15-0.28,0.35-0.39,0.68-0.39c1.1,0.02,2.2,0,3.3,0
		c0.18,0.02,0.37,0.07,0.55,0.07c0.98,0.01,1.96,0.01,2.94,0c1.57-0.01,3.13-0.02,4.7-0.02c-0.25,0.43-0.47,0.88-0.75,1.29
		c-1.68,2.42-3.38,4.84-5.07,7.26c-1.9,2.71-3.8,5.42-5.7,8.13c-0.88,1.25-1.75,2.51-2.63,3.77c-0.15,0.22-0.23,0.41-0.09,0.68
		c0.87,1.68,1.73,3.37,2.59,5.05c1.87,3.66,3.73,7.32,5.6,10.97c1.54,3.01,3.11,6.01,4.65,9.02c1.67,3.26,3.32,6.54,4.98,9.81
		c1.66,3.25,3.32,6.5,4.98,9.75c0.37,0.72,0.37,0.72-0.28,1.18c-3.03,2.13-6.07,4.26-9.1,6.39c-0.38,0.27-0.4,0.28-0.59-0.16
		c-0.8-1.8-1.58-3.6-2.37-5.4c-1.31-3.01-2.61-6.03-3.92-9.05c-1.18-2.7-2.37-5.39-3.55-8.09c-1.62-3.7-3.22-7.41-4.83-11.12
		c-1.46-3.36-2.91-6.72-4.37-10.08c-0.46-1.05-0.93-2.09-1.44-3.22c-0.05,0.18-0.12,0.28-0.1,0.38c0.33,2.76,0.66,5.51,0.99,8.27
		c0.23,1.93,0.45,3.86,0.68,5.8c0.27,2.31,0.54,4.62,0.81,6.92c0.06,0.48,0.05,0.49-0.47,0.49c-1.52,0-3.03,0-4.55,0
		c-2.41,0-4.81,0-7.22,0c-0.61,0-0.61-0.01-0.61-0.59c0-0.11,0-0.23,0-0.34c-0.01-7.68-0.02-15.35-0.03-23.03
		c0-0.13-0.01-0.27-0.01-0.4c0.64-0.61,1.31-1.19,1.91-1.84c0.41-0.44,0.88-0.61,1.45-0.63c0.15-0.01,0.3,0,0.45-0.03
		c0.85-0.13,1.69-0.29,2.09-1.21c0.14-0.33,0.26-0.67,0.39-1.01c0.07-0.14,0.21-0.29,0.19-0.42c-0.07-0.41-0.29-0.73-0.73-0.85
		c-0.91-0.23-1.83-0.26-2.75-0.09c-0.82,0.16-1.52,0.51-1.97,1.29c-0.14,0.24-0.52,0.34-0.8,0.48c-0.03,0.02-0.18-0.11-0.2-0.18
		c-0.03-0.14-0.01-0.3-0.01-0.45c0-2.41,0-4.81,0-7.22c0-0.49-0.01-0.98-0.02-1.47C244.62,154.36,244.63,153.09,244.64,151.81z"/>
	<path class="st0" d="M341.77,154.02c-0.1,0.07-0.23,0.13-0.3,0.22c-1.26,1.66-2.5,3.32-3.76,4.98c-1.96,2.59-3.92,5.19-5.89,7.77
		c-0.25,0.33-0.35,0.58-0.09,1c1.89,3.12,3.74,6.26,5.6,9.4c1.74,2.94,3.47,5.88,5.21,8.82c1.37,2.3,2.75,4.6,4.12,6.9
		c1.09,1.83,2.16,3.67,3.29,5.57c-0.22,0.04-0.42,0.11-0.63,0.13c-1.45,0.09-2.91,0.17-4.36,0.27c-1.9,0.13-3.8,0.27-5.71,0.41
		c-0.6,0.04-1.2,0.09-1.81,0.14c-0.24,0.02-0.37-0.1-0.48-0.31c-0.88-1.65-1.78-3.28-2.66-4.93c-1.95-3.63-3.89-7.26-5.84-10.89
		c-1.66-3.1-3.31-6.19-4.96-9.29c-0.28-0.52-0.55-1.04-0.83-1.55c-0.04-0.08-0.15-0.12-0.22-0.19c-0.04,0.08-0.11,0.16-0.1,0.24
		c0.09,1.28,0.2,2.56,0.29,3.84c0.07,0.94,0.11,1.89,0.16,2.83c0.11,1.89,0.22,3.77,0.33,5.66c0.07,1.13,0.14,2.26,0.22,3.39
		c0.14,1.94,0.28,3.88,0.42,5.82c0.01,0.15,0,0.3,0.01,0.45c0.01,1.04,0.02,1.04-0.98,1.26c-2.86,0.63-5.72,1.26-8.58,1.89
		c-0.88,0.19-1.76,0.41-2.68,0.62c-0.01-0.21-0.04-0.37-0.04-0.54c0.01-1.12,0.01-2.24,0.03-3.35c0.03-1.84,0.09-3.67,0.12-5.51
		c0.04-1.99,0.07-3.98,0.1-5.96c0.04-1.85,0.09-3.71,0.12-5.56c0.04-1.93,0.07-3.86,0.1-5.79c0.04-1.91,0.09-3.82,0.12-5.73
		c0.04-1.89,0.07-3.79,0.1-5.68c0.04-1.95,0.09-3.9,0.12-5.85c0.04-1.82,0.07-3.63,0.1-5.45c0.04-1.99,0.08-3.97,0.13-5.96
		c0.01-0.47,0.06-0.94,0.07-1.42c0-0.29,0.11-0.39,0.4-0.41c1.53-0.1,3.05-0.22,4.58-0.33c2.13-0.15,4.26-0.3,6.39-0.46
		c0.38-0.03,0.75-0.06,1.13-0.11c0.34-0.04,0.44,0.1,0.4,0.42c-0.1,0.9-0.18,1.8-0.27,2.71c-0.14,1.28-0.28,2.55-0.42,3.83
		c-0.19,1.73-0.39,3.45-0.57,5.18c-0.13,1.22-0.24,2.44-0.37,3.67c-0.17,1.65-0.36,3.3-0.54,4.95c-0.12,1.13-0.23,2.25-0.34,3.38
		c-0.01,0.09,0.06,0.19,0.09,0.29c0.08-0.07,0.19-0.12,0.24-0.2c0.86-1.4,1.71-2.81,2.56-4.22c1.84-3.02,3.69-6.03,5.52-9.05
		c1.03-1.69,2.06-3.39,3.07-5.1c0.19-0.32,0.36-0.42,0.77-0.32c1.61,0.42,3.23,0.78,4.85,1.16c0.28,0.78,0.57,1.55,0.83,2.33
		c0.15,0.44,0.3,0.89,0.37,1.35C341.51,151.86,341.63,152.94,341.77,154.02z"/>
	<path class="st1" d="M341.77,154.02c-0.14-1.08-0.26-2.16-0.43-3.24c-0.07-0.46-0.22-0.91-0.37-1.35
		c-0.26-0.78-0.55-1.56-0.83-2.33c-0.16-0.46-0.31-0.93-0.49-1.38c-0.25-0.62-0.26-0.61,0.31-0.88c1.06-0.49,2.15-0.62,3.31-0.45
		c0.33,0.05,0.69-0.09,1.03-0.18c1.32-0.35,2.67-0.23,4.01-0.24c1.5-0.01,2.98,0.22,4.44,0.51c0.31,0.06,0.62,0.17,0.93,0.24
		c0.07,0.02,0.17-0.06,0.25-0.09c-0.06-0.05-0.12-0.1-0.19-0.14c-1.18-0.66-2.5-0.85-3.81-0.94c-1.41-0.1-2.84-0.06-4.25-0.01
		c-0.53,0.02-1.06,0.24-1.59,0.34c-0.21,0.04-0.45,0.06-0.64-0.02c-0.65-0.25-1.32-0.35-2-0.18c-0.32,0.08-0.48,0.01-0.62-0.3
		c-1-2.22-0.83-4.37,0.38-6.46c0.51-0.87,0.51-0.86-0.48-0.92c-0.41-0.03-0.83-0.07-1.23-0.17c-0.24-0.06-0.47-0.23-0.66-0.4
		c-0.43-0.38-0.42-0.39-0.89-0.06c-1.05,0.74-2.1,1.48-3.14,2.24c-0.29,0.21-0.5,0.31-0.76-0.03c-0.06-0.08-0.21-0.1-0.32-0.14
		c-0.03,0.13-0.12,0.28-0.08,0.4c0.17,0.53,0.15,1.02-0.07,1.54c-0.17,0.41-0.18,0.88-0.29,1.32c-0.07,0.29-0.13,0.59-0.27,0.86
		c-0.07,0.14-0.3,0.3-0.44,0.28c-0.14-0.02-0.33-0.22-0.36-0.38c-0.08-0.38-0.09-0.78-0.13-1.17c-0.01-0.1-0.02-0.2-0.03-0.3
		c-0.12,0.04-0.27,0.05-0.36,0.12c-0.6,0.49-1.19,1-1.8,1.48c-0.38,0.3-0.78,0.59-1.21,0.84c-0.62,0.36-0.9,0.21-1.13-0.45
		c-0.33-0.97-0.04-1.85,0.42-2.66c0.75-1.3,1.84-2.23,3.31-2.68c0.35-0.11,0.65-0.37,0.97-0.57c0.21-0.13,0.2-0.3,0.05-0.48
		c-0.07-0.09-0.16-0.17-0.24-0.25c-0.24-0.23-0.18-0.4,0.09-0.58c0.99-0.66,1.98-1.33,2.96-2c0.4-0.28,0.4-0.31,0.1-0.69
		c-0.5-0.63-0.5-1.11,0.01-1.72c0.06-0.07,0.12-0.14,0.18-0.22c0.51-0.6,0.53-0.61,0.11-1.29c-0.13-0.22-0.11-0.37,0.04-0.56
		c0.96-1.19,1.93-2.38,2.86-3.6c0.26-0.33,0.5-0.32,0.84-0.19c0.58,0.23,0.58,0.22,1.01-0.24c0.32-0.35,0.64-0.7,1.02-1.12
		c-0.27-0.11-0.49-0.24-0.73-0.3c-0.55-0.14-0.56-0.14-0.2-0.62c0.59-0.79,1.19-1.56,1.79-2.34c0.36-0.47,0.71-0.93,1.08-1.39
		c0.64-0.82,1.44-1.25,2.48-0.87c0.99,0.37,1.98,0.76,2.91,1.24c2.42,1.25,4.81,2.54,7.2,3.84c0.32,0.18,0.61,0.44,0.87,0.71
		c0.2,0.2,0.3,0.16,0.44-0.04c0.35-0.5,0.45-0.99,0.19-1.59c-0.33-0.74-0.62-1.5-0.81-2.29c-0.51-2.18-0.08-4.17,1.36-5.9
		c0.46-0.55,1.01-1.02,1.55-1.49c0.81-0.71,1.79-0.87,2.82-0.78c2.58,0.23,4.72,1.4,6.54,3.18c1.03,1.01,1.55,2.3,1.86,3.69
		c0.03,0.14,0.02,0.3,0.01,0.45c-0.01,0.14-0.03,0.28-0.23,0.16c-0.26-0.16-0.34,0.02-0.37,0.23c-0.15,1.14-0.76,2.03-1.48,2.88
		c-0.24,0.28-0.32,0.71-0.42,1.08c-0.06,0.23,0,0.49-0.02,0.74c-0.03,0.4-0.31,0.64-0.69,0.52c-0.48-0.16-0.72,0.06-0.99,0.4
		c-0.49,0.6-0.99,1.19-1.56,1.7c-0.4,0.36-0.95,0.22-1.4,0.01c-0.55-0.25-1.08-0.55-1.59-0.87c-0.35-0.23-0.58-0.16-0.82,0.14
		c-0.2,0.25-0.43,0.48-0.62,0.74c-0.3,0.4-0.5,0.78-0.25,1.34c0.3,0.68-0.01,1.37-0.4,1.92c-0.69,0.96-1.41,1.93-2.25,2.76
		c-0.82,0.81-1.44,1.75-2.12,2.66c-0.81,1.07-1.57,2.18-2.36,3.27c-0.31,0.44-0.29,0.52,0.22,0.68c1.64,0.52,3.23,1.19,4.72,2.06
		c1.38,0.81,2.58,1.86,3.68,3.01c0.67,0.7,0.96,1.54,0.52,2.5c-0.28,0.6-0.55,1.2-0.87,1.78c-0.44,0.8-1.18,1.22-2.06,1.34
		c-1.01,0.14-2.03,0.24-3.04,0.33c-0.36,0.03-0.37,0.14-0.24,0.42c0.74,1.67,1.5,3.33,2.2,5.02c0.34,0.83,0.57,1.72,0.83,2.58
		c0.35,1.21,0.7,2.43,1.01,3.65c0.23,0.88,0.41,1.77,0.59,2.66c0.2,0.98,0.36,1.97,0.55,2.95c0.41,2.14,0.82,4.27,1.24,6.41
		c0.05,0.27,0,0.43-0.28,0.51c-0.32,0.1-0.63,0.27-0.95,0.37c-0.32,0.11-0.33,0.28-0.22,0.56c0.4,1.06,0.99,2.01,1.73,2.84
		c1.17,1.31,2.38,2.59,3.58,3.88c0.4,0.42,0.69,0.88,0.85,1.45c0.13,0.46,0.03,0.86-0.13,1.27c-0.13,0.35-0.29,0.39-0.6,0.2
		c-2.77-1.71-5.64-3.22-8.57-4.63c-0.56-0.27-0.83-0.63-0.78-1.21c0.04-0.41,0.14-0.81,0.24-1.21c0.09-0.36,0.23-0.72,0.3-1.08
		c0.08-0.42-0.06-0.53-0.46-0.39c-0.3,0.11-0.6,0.23-0.89,0.38c-0.29,0.15-0.42,0.06-0.46-0.24c-0.11-0.71-0.23-1.42-0.35-2.13
		c-0.28-1.7-0.56-3.4-0.83-5.1c-0.29-1.77-0.57-3.55-0.86-5.32c-0.36-2.24-0.71-4.48-1.07-6.72c-0.08-0.47-0.22-0.88-0.58-1.25
		c-1.42-1.47-2.81-2.97-4.21-4.46c-0.04-0.04-0.08-0.08-0.12-0.12c-0.87-0.91-0.86-0.9-2.09-0.83c-0.28,0.01-0.57-0.1-0.94-0.16
		c-0.07,0.44-0.18,0.98-0.26,1.53c-0.16,1.1-0.25,2.22-0.47,3.31c-0.14,0.72-0.67,1.22-1.36,1.49c-0.45,0.18-0.6,0.06-0.65-0.42
		C341.94,155.49,341.85,154.76,341.77,154.02z"/>
	<path class="st1" d="M277.04,145.58c-1.57,0.01-3.13,0.02-4.7,0.02c-0.98,0-1.96,0-2.94,0c-0.18,0-0.37-0.05-0.55-0.07
		c0.06-1.37,0.72-2.53,1.27-3.73c1.17-2.53,2.35-5.06,3.53-7.59c0.19-0.4,0.13-0.48-0.32-0.51c-0.58-0.05-1.17-0.1-1.75-0.15
		c-0.41-0.04-0.45-0.09-0.32-0.51c0.38-1.27,0.78-2.53,1.17-3.79c0.58-1.88,1.16-3.76,1.74-5.63c0.66-2.13,1.32-4.25,1.98-6.38
		c0.11-0.37,0.19-0.75,0.29-1.13c-0.04-0.03-0.08-0.05-0.12-0.08c-0.11,0.13-0.23,0.24-0.33,0.38c-1.7,2.32-3.4,4.63-5.1,6.95
		c-0.06,0.08-0.12,0.15-0.17,0.23c-0.17,0.25-0.35,0.39-0.62,0.1c-0.08-0.08-0.22-0.1-0.36-0.12c0.55,0.89,0.19,1.85,0.3,2.76
		c0.02,0.16-0.17,0.34-0.27,0.51c-0.15-0.11-0.32-0.21-0.46-0.34c-0.08-0.07-0.09-0.2-0.15-0.3c-0.09-0.15-0.18-0.3-0.27-0.46
		c-0.13,0.13-0.28,0.24-0.39,0.39c-0.41,0.55-0.77,1.13-1.2,1.65c-0.64,0.77-1.07,0.67-1.37-0.27c-0.35-1.09-0.03-2.07,0.59-2.95
		c0.34-0.48,0.85-0.85,1.28-1.26c0.11-0.1,0.24-0.18,0.34-0.29c0.4-0.43,0.39-0.45-0.07-0.81c-0.38-0.29-0.37-0.31-0.06-0.65
		c1.75-1.93,3.51-3.86,5.25-5.81c1.14-1.27,2.25-2.55,3.37-3.84c0.56-0.65,1.28-0.99,2.12-1.08c0.54-0.06,1.09-0.09,1.64-0.1
		c0.35-0.01,0.58-0.08,0.64-0.47c0.06-0.39,0.19-0.77,0.26-1.16c0.12-0.77-0.05-1.07-0.73-1.49c-0.43-0.27-0.87-0.54-1.27-0.85
		c-1.27-0.98-2.12-2.24-2.56-3.79c-0.04-0.13-0.06-0.26-0.07-0.39c-0.07-0.61-0.12-0.72-0.73-0.81c-1.92-0.3-3.15,0.38-4.02,2.35
		c-0.47,1.06-0.7,2.19-0.76,3.45c-0.53-0.48-0.9-0.97-1.19-1.52c-0.72-1.4-0.93-2.87-0.51-4.4c0.49-1.78,1.91-2.73,3.86-2.67
		c1.02,0.03,1.98,0.27,2.93,0.6c0.49,0.17,0.47,0.18,0.67-0.32c0.82-2.04,2.3-3.34,4.41-3.91c3.58-0.96,6.93,0.43,9.18,3.22
		c0.05,0.06,0.06,0.14,0.09,0.21c0,0,0.01-0.01,0.01-0.01c-0.15-0.02-0.3-0.01-0.44-0.06c-0.32-0.12-0.35,0.08-0.28,0.28
		c0.43,1.15,0.27,2.3,0,3.45c-0.09,0.4-0.11,0.82,0.15,1.21c0.11,0.17,0.19,0.37,0.27,0.56c0.17,0.44,0.11,0.72-0.32,0.88
		c-0.51,0.19-0.64,0.53-0.7,1.03c-0.08,0.59-0.28,1.17-0.47,1.74c-0.14,0.41-0.47,0.66-0.9,0.68c-0.77,0.04-1.54,0.03-2.32,0.03
		c-0.98,0-0.95-0.2-1.23,0.86c-0.09,0.33-0.15,0.67-0.17,1c-0.02,0.53,0.07,0.61,0.59,0.73c0.33,0.07,0.67,0.14,0.99,0.24
		c0.78,0.22,1.37,0.71,1.87,1.32c2.45,2.95,5.2,5.61,7.91,8.31c0.05,0.05,0.11,0.11,0.16,0.16c0.23,0.2,0.3,0.39-0.02,0.57
		c-0.35,0.2-0.27,0.41-0.06,0.68c0.28,0.37,0.65,0.55,1.09,0.66c0.49,0.13,0.98,0.28,1.46,0.45c0.82,0.3,1.43,0.83,1.81,1.62
		c0.1,0.66,0.04,0.76-0.57,0.65c-0.7-0.13-1.38-0.38-2.06-0.57c-0.2-0.09-0.4-0.2-0.61-0.28c-0.29-0.11-0.38-0.03-0.33,0.27
		c0.03,0.21,0.12,0.41,0.11,0.61c-0.01,0.18-0.11,0.36-0.17,0.55c-0.17-0.07-0.42-0.1-0.48-0.23c-0.39-0.82-1.2-1.41-1.24-2.43
		c-0.02-0.58-0.55-0.8-0.97-0.44c-0.29,0.26-0.44,0.22-0.67-0.08c-1.61-2.01-3.23-4.01-4.85-6.01c-0.37-0.46-0.75-0.92-1.13-1.38
		c-0.05,0.02-0.09,0.03-0.14,0.05c0.03,0.21,0.04,0.42,0.08,0.63c0.19,0.87,0.4,1.73,0.59,2.6c0.27,1.26,0.51,2.52,0.78,3.78
		c0.41,1.9,0.84,3.8,1.26,5.71c0.42,1.94,0.82,3.88,1.24,5.83c0.11,0.49,0.1,0.51-0.41,0.5c-0.66-0.02-1.32-0.07-1.98-0.09
		c-0.46-0.01-0.52,0.09-0.35,0.49c0.82,1.91,1.65,3.81,2.46,5.72c0.4,0.95,0.99,1.68,2.01,2.01c0.88,0.29,1.76,0.6,2.6,0.97
		c0.45,0.2,0.86,0.52,1.25,0.84c0.13,0.11,0.13,0.37,0.19,0.57c-0.19,0.05-0.37,0.15-0.56,0.15c-1.36,0.02-2.73,0.02-4.09,0.03
		c-0.94,0-1.88,0-2.82,0c-0.18,0-0.37-0.04-0.55-0.06c0.11-0.63,0.21-1.26,0.32-1.89c0.05-0.26,0.05-0.48-0.09-0.75
		c-0.88-1.69-1.72-3.39-2.58-5.09c-0.48-0.94-0.96-1.88-1.44-2.83c-0.13-0.26-0.29-0.45-0.64-0.46c-0.74-0.03-1.47-0.1-2.2-0.16
		c-1.41-0.12-2.82-0.22-4.23-0.37c-0.53-0.05-0.81,0.12-1.07,0.58c-1.32,2.39-2.69,4.76-4.03,7.14c-0.37,0.65-0.29,0.93,0.4,1.23
		c0.86,0.38,1.75,0.71,2.61,1.07c0.31,0.13,0.62,0.29,0.89,0.49C276.89,144.76,277.12,145.1,277.04,145.58z"/>
	<path class="st1" d="M244.64,151.81c-0.01,1.27-0.02,2.54-0.03,3.81c-0.3,0.35-0.72,0.66-0.88,1.07c-0.6,1.46-1.12,2.96-1.67,4.44
		c-0.5,1.34-0.97,2.69-1.78,3.9c-0.53,0.78-0.95,1.63-1.46,2.43c-0.21,0.32-0.13,0.41,0.19,0.49c0.46,0.11,0.91,0.25,1.36,0.39
		c0.45,0.14,0.81,0.04,1.2-0.23c1.26-0.89,2.56-1.73,3.84-2.62c0.31-0.21,0.59-0.47,0.83-0.75c0.49-0.56,1.05-0.99,1.82-1.03
		c0.56-0.03,1.12,0,1.69-0.01c0.6-0.01,1.06,0.16,1.16,0.83c-0.13,0.34-0.25,0.68-0.39,1.01c-0.39,0.92-1.24,1.07-2.09,1.21
		c-0.15,0.02-0.3,0.02-0.45,0.03c-0.56,0.02-1.04,0.19-1.45,0.63c-0.6,0.65-1.27,1.23-1.91,1.84c-0.33,0.27-0.68,0.53-1,0.82
		c-0.5,0.44-1.03,0.85-1.45,1.36c-0.55,0.68-1.19,0.59-1.9,0.43c-0.29-0.07-0.59-0.1-0.89-0.14c-0.27-0.03-0.35,0.08-0.31,0.37
		c0.11,1.01,0.27,2.03,0.25,3.05c-0.02,1.03-0.23,2.06-0.39,3.08c-0.08,0.51-0.06,0.59,0.53,0.77c0.93,0.29,1.85,0.66,2.8,0.87
		c1.3,0.29,1.75,1.78,1.58,2.77c-0.17,0.94-0.51,1.8-1.03,2.61c-1.07,1.69-2.12,3.4-3.18,5.1c-0.38,0.61-0.33,0.73,0.31,1.07
		c0.91,0.49,1.81,1,2.7,1.53c0.09,0.05,0.16,0.27,0.13,0.38c-0.02,0.1-0.19,0.22-0.3,0.23c-0.72,0.02-1.44,0.01-2.16,0.01
		c-1.19,0-2.39,0-3.58,0c-0.62,0-0.79-0.22-0.63-0.8c0.54-1.96,1.08-3.93,1.61-5.89c0.12-0.46,0.2-0.92,0.34-1.38
		c0.08-0.28-0.02-0.35-0.26-0.35c-0.23-0.01-0.45-0.01-0.68-0.01c-0.87,0-0.88,0-0.91,0.87c-0.03,1.08-0.03,2.16-0.07,3.24
		c-0.04,1.04-0.12,2.07-0.2,3.11c-0.04,0.57-0.59,1.09-1.2,1.2c-0.71,0.12-1.4,0.05-2.06-0.24c-1.49-0.66-2.96-1.33-4.44-2
		c-0.22-0.1-0.45-0.21-0.64-0.35c-0.23-0.16-0.33-0.05-0.43,0.14c-0.17,0.34-0.34,0.67-0.53,1c-0.14,0.24-0.01,0.37,0.11,0.55
		c0.1,0.15,0.23,0.42,0.17,0.52c-0.11,0.18-0.35,0.34-0.56,0.4c-0.25,0.07-0.53,0.03-0.79,0.01c-0.67-0.06-0.98-0.46-0.85-1.13
		c0.2-0.98,0.08-1.96,0.01-2.94c-0.03-0.32-0.06-0.64-0.03-0.96c0.05-0.68,0.49-1.05,1.18-1.01c0.26,0.02,0.55,0.05,0.77,0.16
		c1.23,0.63,2.6,0.63,3.9,0.94c0.38,0.09,0.49-0.05,0.35-0.43c-0.37-1.07-0.74-2.14-1.14-3.2c-0.06-0.15-0.24-0.28-0.39-0.38
		c-1.77-1.08-2.55-2.72-2.68-4.73c-0.1-1.48,0.44-2.78,1.11-4.04c0.06-0.12,0.31-0.25,0.44-0.22c0.44,0.1,0.73-0.06,0.99-0.38
		c0.1-0.12,0.21-0.22,0.33-0.31c1.06-0.83,1.54-1.92,1.51-3.26c-0.02-1.12-0.02-2.23,0-3.35c0.01-0.63,0.21-1.22,0.5-1.78
		c0.34-0.66,0.15-0.96-0.6-0.93c-0.74,0.03-1.47,0.13-2.21,0.12c-0.99-0.02-1.97-0.19-2.79-0.81c-1.27-0.97-1.93-2.29-2-3.84
		c-0.13-2.64,1.21-4.54,3.3-5.96c1.19-0.81,2.52-1.29,3.98-1.37c1.63-0.09,3.19,0.61,3.89,2.19c0.08,0.17,0.13,0.35,0.17,0.53
		c0.17,0.65,0.56,1.04,1.25,1.13c0.56,0.07,0.55,0.1,0.55,0.7c0,0.19,0.09,0.39,0.16,0.57c0.29,0.73,0.66,1.44,0.86,2.2
		c0.15,0.57-0.18,1.13-0.61,1.52c-0.44,0.41-0.95,0.74-1.44,1.09c-0.17,0.13-0.37,0.23-0.25,0.49c0.09,0.18,0.2,0.34,0.31,0.51
		c0.16-0.11,0.35-0.2,0.47-0.35c0.84-1.09,1.66-2.2,2.51-3.29c0.67-0.86,1.14-1.82,1.59-2.79c0.34-0.72,0.69-1.42,1-2.15
		c0.18-0.41,0.3-0.85,0.41-1.28C242.44,153.39,243.26,152.37,244.64,151.81z"/>
	<path class="st0" d="M253.24,132.27c0.26,0.54,0.49,1.04,0.74,1.54c0.45,0.91,0.71,1.89,0.76,2.89c0.1,1.96-0.68,3.82-2.88,4.49
		c-2.04,0.63-4.32-0.34-4.81-2.75c-0.08-0.39-0.09-0.79-0.14-1.18c-0.02-0.14-0.08-0.27-0.12-0.4c-0.1,0.1-0.23,0.18-0.3,0.29
		c-0.69,1.15-1.56,2.13-2.69,2.88c-1.02,0.67-2.14,0.93-3.35,0.8c-1.14-0.13-2.28-1.25-2.51-2.4c-0.33-1.65,0.23-3.09,1.03-4.46
		c0.7-1.21,1.68-2.19,2.67-3.15c0.12-0.11,0.22-0.24,0.3-0.45c-0.37,0.1-0.75,0.22-1.12,0.3c-1.01,0.21-2.03,0.36-3.01-0.08
		c-0.73-0.33-1.19-0.9-1.25-1.74c-0.11-1.58,0.63-2.81,1.65-3.89c1.65-1.74,3.74-2.65,6.09-3c0.56-0.08,1.11-0.16,1.71-0.35
		c-0.21-0.11-0.43-0.23-0.64-0.34c-0.77-0.41-1.45-0.92-1.77-1.75c-0.47-1.21-0.25-2.34,0.48-3.38c0.9-1.29,2.11-2.12,3.68-2.29
		c0.99-0.1,1.87,0.27,2.52,1.04c0.79,0.94,1.12,2.09,1.29,3.28c0.06,0.41,0.06,0.83,0.11,1.24c0.02,0.13,0.1,0.26,0.15,0.39
		c0.11-0.09,0.24-0.17,0.32-0.28c0.74-1.11,1.69-1.99,2.83-2.66c1.41-0.84,2.91-1.34,4.6-1.03c1.22,0.22,1.93,1.05,1.92,2.29
		c-0.01,1-0.41,1.87-0.89,2.72c-0.68,1.19-1.53,2.25-2.5,3.22c-0.16,0.16-0.29,0.35-0.44,0.52c-0.5,0.58-0.5,0.57,0.07,1.12
		c0.6,0.58,1.21,1.14,1.61,1.9c0.95,1.76,0.38,3.7-1.38,4.66c-1.47,0.8-2.95,0.83-4.43,0.05c-0.05-0.03-0.1-0.04-0.16-0.06
		C253.37,132.22,253.35,132.23,253.24,132.27z M247.06,130.38c2.11-0.03,4.05-1.09,4.67-3.17c0.35-1.16,0.09-1.99-1.23-2.14
		c-2.24-0.26-4.06,0.56-5.33,2.41c-0.56,0.82-0.56,1.38,0.14,2.22C245.78,130.26,246.48,130.35,247.06,130.38z"/>
	<path class="st1" d="M361.33,128.47c0.29,0.71,0.58,1.42,0.87,2.13c0.5,1.24,1,2.48,1.51,3.72c0.49,1.17,1.06,2.3,1.48,3.49
		c0.32,0.9,0.48,1.86,0.68,2.81c0.42,1.98,0.83,3.96,1.24,5.94c0.04,0.2,0.09,0.41,0.13,0.61c0.09,0.53,0.09,0.55-0.44,0.65
		c-0.39,0.07-0.33,0.31-0.33,0.59c0,0.91,0.44,1.7,0.64,2.56c0.33,1.43,0.19,2.82-0.55,4.11c-0.34,0.59-0.82,1.03-1.47,1.27
		c-0.43,0.16-0.61,0.09-0.82-0.33c-0.08-0.16-0.15-0.35-0.16-0.53c-0.08-1.11-0.15-2.22-0.23-3.34c-0.01-0.16-0.09-0.31-0.13-0.46
		c-0.13,0.07-0.25,0.15-0.38,0.22c-0.29,0.18-0.56,0.39-0.86,0.54c-0.14,0.07-0.43,0.07-0.5-0.02c-0.11-0.14-0.16-0.4-0.1-0.57
		c0.11-0.3,0.31-0.56,0.48-0.83c0.33-0.49,0.64-0.98,1.01-1.44c0.21-0.25,0.49-0.47,0.78-0.62c0.3-0.15,0.36-0.36,0.32-0.65
		c-0.04-0.31-0.24-0.43-0.52-0.38c-0.48,0.09-0.64-0.19-0.71-0.58c-0.25-1.42-0.5-2.83-0.75-4.25c-0.23-1.32-0.41-2.66-0.73-3.96
		c-0.2-0.79-0.64-1.53-0.97-2.29c-0.49-1.12-0.99-2.24-1.5-3.35c-0.12-0.27-0.27-0.54-0.47-0.77c-0.21-0.23-0.11-0.32,0.08-0.48
		c0.79-0.63,1.52-1.33,1.94-2.26c0.21-0.46,0.26-0.99,0.39-1.5C361.28,128.52,361.31,128.49,361.33,128.47z"/>
	<path class="st0" d="M313.22,220.36c-0.38,0-0.76-0.03-1.14,0.01c-0.41,0.04-0.61-0.1-0.74-0.5c-0.37-1.17-0.79-2.32-1.19-3.48
		c-1.03-3-2.07-6-3.1-9c-0.21-0.6-0.19-0.63,0.46-0.64c0.61,0,1.21,0,1.82,0c0.31,0,0.51,0.1,0.62,0.45
		c0.57,1.78,1.18,3.54,1.76,5.31c0.46,1.4,0.91,2.8,1.38,4.19c0.03,0.1,0.15,0.18,0.22,0.26c0.06-0.08,0.15-0.16,0.18-0.25
		c0.31-0.95,0.61-1.91,0.92-2.86c0.71-2.21,1.42-4.42,2.14-6.63c0.09-0.29,0.26-0.49,0.61-0.48c0.64,0.01,1.29,0,1.93,0
		c0.26,0,0.39,0.07,0.28,0.38c-0.87,2.51-1.73,5.03-2.58,7.55c-0.49,1.46-0.96,2.93-1.44,4.39c-0.09,0.27-0.16,0.54-0.27,0.8
		c-0.13,0.32-0.3,0.58-0.74,0.51C313.99,220.31,313.6,220.36,313.22,220.36z"/>
	<path class="st0" d="M300.74,216.22c-0.95,0-1.9,0-2.84,0c-0.5,0-0.59,0.13-0.47,0.62c0.21,0.87,1.18,1.65,2.11,1.73
		c1.24,0.1,2.4-0.13,3.49-0.75c0.45-0.25,0.47-0.22,0.45,0.31c-0.02,0.36-0.04,0.73,0,1.08c0.06,0.47-0.17,0.72-0.55,0.86
		c-1.74,0.61-3.49,0.76-5.26,0.11c-1.59-0.59-2.42-1.8-2.78-3.39c-0.27-1.21-0.16-2.41,0.2-3.58c0.53-1.7,2.05-3.09,4.09-3.08
		c0.78,0,1.55,0.03,2.29,0.31c1.19,0.45,1.89,1.36,2.29,2.51c0.3,0.86,0.43,1.76,0.4,2.68c-0.02,0.58-0.02,0.59-0.62,0.59
		C302.59,216.22,301.67,216.22,300.74,216.22z M301.96,214.35c-0.06-0.3-0.1-0.54-0.14-0.78c-0.27-1.52-2.32-2.15-3.55-1.4
		c-0.73,0.44-0.85,1.16-0.95,1.89c-0.04,0.33,0.21,0.3,0.42,0.3c0.97,0,1.93,0,2.9,0C301.07,214.35,301.5,214.35,301.96,214.35z"/>
	<path class="st1" d="M305.72,242.66c-0.09,0.23-0.12,0.38-0.19,0.5c-0.85,1.43-1.69,2.87-2.55,4.29c-0.19,0.32-0.14,0.49,0.13,0.71
		c1.46,1.2,2.9,2.42,4.34,3.64c0.06,0.05,0.14,0.16,0.13,0.22c-0.01,0.06-0.12,0.14-0.2,0.15c-0.67,0.13-1.34,0.26-2.01,0.37
		c-0.1,0.02-0.24-0.07-0.33-0.15c-0.92-0.79-1.83-1.58-2.74-2.38c-0.28-0.25-0.54-0.52-0.82-0.78c-0.06-0.06-0.18-0.11-0.24-0.09
		c-0.06,0.02-0.12,0.15-0.11,0.22c0.03,0.3,0.08,0.6,0.13,0.9c0.17,0.87,0.33,1.75,0.52,2.61c0.06,0.26-0.07,0.36-0.27,0.41
		c-0.44,0.1-0.89,0.18-1.33,0.27c-0.3,0.06-0.36-0.17-0.4-0.37c-0.32-1.67-0.62-3.34-0.93-5.02c-0.2-1.06-0.4-2.11-0.6-3.17
		c-0.03-0.17-0.05-0.34-0.09-0.5c-0.06-0.28,0.04-0.42,0.34-0.46c0.36-0.05,0.7-0.14,1.06-0.21c0.43-0.08,0.47-0.04,0.56,0.39
		c0.18,0.94,0.37,1.89,0.57,2.83c0.02,0.12,0.11,0.22,0.16,0.33c0.11-0.09,0.25-0.15,0.32-0.26c0.64-1.12,1.28-2.23,1.89-3.36
		c0.22-0.4,0.42-0.71,0.95-0.75C304.54,242.96,305.08,242.79,305.72,242.66z"/>
	<path class="st1" d="M216.25,204.37c-0.1,0.09-0.29,0.18-0.36,0.33c-0.54,1.21-1.05,2.43-1.57,3.65c-0.23,0.54-0.44,1.09-0.68,1.63
		c-0.03,0.08-0.14,0.2-0.17,0.19c-0.09-0.03-0.2-0.1-0.24-0.19c-0.3-0.55-0.6-1.09-0.86-1.66c-0.07-0.16-0.04-0.41,0.04-0.58
		c0.58-1.31,1.18-2.61,1.78-3.92c0.02-0.05,0.07-0.1,0.07-0.15c0.02-0.12,0.02-0.25,0.02-0.37c-0.12,0.01-0.26-0.02-0.36,0.03
		c-0.36,0.17-0.71,0.36-1.06,0.55c-0.63,0.34-1.27,0.68-1.9,1.03c-0.23,0.13-0.39,0.09-0.52-0.14c-0.21-0.4-0.45-0.79-0.63-1.2
		c-0.04-0.09,0.12-0.34,0.24-0.41c1.54-0.85,3.09-1.67,4.63-2.5c0.97-0.52,1.94-1.03,2.9-1.56c0.56-0.3,0.62-0.29,0.9,0.26
		c0.13,0.25,0.25,0.51,0.41,0.75c0.21,0.32,0.13,0.5-0.2,0.66c-0.78,0.39-1.54,0.81-2.31,1.21c-0.12,0.06-0.25,0.1-0.35,0.18
		c-0.08,0.06-0.12,0.17-0.18,0.26c0.09,0.05,0.17,0.13,0.27,0.15c1.36,0.29,2.73,0.59,4.1,0.86c0.36,0.07,0.58,0.22,0.74,0.53
		c0.22,0.44,0.47,0.86,0.7,1.3c0.05,0.09,0.06,0.21,0.08,0.31c-0.12,0-0.24,0.04-0.36,0.01c-1.62-0.37-3.24-0.75-4.86-1.13
		C216.47,204.43,216.4,204.41,216.25,204.37z"/>
	<path class="st1" d="M277.84,248.16c0.02,1.11-0.27,2.13-0.89,3.05c-0.98,1.47-3.2,1.63-4.38,0.33c-0.24-0.27-0.42-0.51-0.58,0.05
		c-0.02,0.07-0.22,0.15-0.33,0.13c-0.41-0.06-0.82-0.15-1.22-0.24c-0.26-0.06-0.23-0.23-0.19-0.44c0.34-1.74,0.68-3.48,1.01-5.23
		c0.25-1.28,0.49-2.56,0.73-3.84c0.13-0.7,0.16-0.74,0.83-0.59c0.24,0.05,0.48,0.1,0.72,0.15c0.42,0.09,0.47,0.17,0.37,0.64
		c-0.19,0.96-0.38,1.93-0.56,2.89c-0.02,0.11,0.03,0.23,0.05,0.35c0.11-0.03,0.22-0.03,0.31-0.08c1.83-1.01,3.99,0.2,4.12,2.31
		C277.84,247.81,277.84,247.99,277.84,248.16z M272.62,249.03c0.03,0.17,0.06,0.45,0.14,0.72c0.18,0.59,0.55,0.99,1.18,1.08
		c0.64,0.09,1.07-0.23,1.4-0.75c0.38-0.59,0.54-1.26,0.55-1.93c0.02-0.65-0.14-1.29-0.8-1.64c-0.66-0.35-1.43-0.11-1.91,0.6
		C272.82,247.65,272.68,248.27,272.62,249.03z"/>
	<path class="st1" d="M348.69,220.84c0.01-1.41,1.09-2.78,2.2-2.97c0.13-0.02,0.25-0.13,0.38-0.19c-0.09-0.11-0.16-0.24-0.26-0.33
		c-0.74-0.65-1.48-1.29-2.24-1.92c-0.21-0.18-0.24-0.3-0.06-0.51c0.27-0.3,0.52-0.6,0.78-0.91c0.17-0.2,0.3-0.21,0.52-0.02
		c1.12,0.96,2.25,1.91,3.37,2.86c1.3,1.1,2.59,2.21,3.9,3.29c0.27,0.22,0.32,0.38,0.06,0.63c-0.22,0.21-0.4,0.46-0.59,0.69
		c-0.16,0.2-0.29,0.39-0.59,0.18c-0.21-0.14-0.31,0-0.3,0.22c0.07,1.21-1.35,2.74-2.62,2.78c-0.62,0.02-1.2-0.09-1.74-0.39
		c-1.04-0.58-1.92-1.35-2.49-2.42C348.82,221.49,348.75,221.06,348.69,220.84z M352,218.87c-1.03-0.03-1.73,0.97-1.29,1.91
		c0.16,0.35,0.39,0.7,0.67,0.97c0.56,0.55,1.21,0.98,2.04,0.99c0.71,0.01,1.39-0.79,1.28-1.49C354.5,220.07,353.19,218.9,352,218.87
		z"/>
	<path class="st1" d="M235.19,234.26c-1.15-0.02-2.21-0.71-2.64-1.76c-0.06-0.16-0.15-0.31-0.18-0.48
		c-0.07-0.32-0.18-0.44-0.49-0.19c-0.07,0.06-0.29,0.02-0.38-0.05c-0.31-0.22-0.59-0.47-0.88-0.71c-0.21-0.17-0.17-0.34-0.01-0.53
		c0.59-0.69,1.16-1.39,1.74-2.09c1.42-1.7,2.84-3.39,4.25-5.09c0.37-0.45,0.39-0.46,0.84-0.1c0.23,0.19,0.46,0.39,0.71,0.57
		c0.28,0.19,0.25,0.37,0.05,0.6c-0.6,0.7-1.19,1.42-1.79,2.13c-0.07,0.09-0.16,0.16-0.22,0.26c-0.05,0.09-0.07,0.2-0.1,0.3
		c0.1,0.03,0.2,0.08,0.31,0.08c0.72-0.03,1.33,0.22,1.85,0.71c0.84,0.78,1.22,1.9,0.76,3.03c-0.59,1.46-1.53,2.6-3.05,3.16
		C235.71,234.18,235.44,234.21,235.19,234.26z M237.28,229.79c0.01-0.93-0.73-1.58-1.54-1.48c-1.22,0.16-2.45,1.66-2.35,2.89
		c0.06,0.77,0.95,1.36,1.69,1.13c1.02-0.32,1.61-1.08,2.03-2C237.21,230.13,237.24,229.9,237.28,229.79z"/>
	<path class="st1" d="M232.42,223.74c-0.04,0.87-0.4,1.6-0.93,2.23c-0.76,0.89-1.64,1.62-2.82,1.89c-1.7,0.4-3.18-1.21-3.3-2.44
		c-0.04-0.49-0.04-0.48-0.47-0.32c-0.1,0.04-0.29,0-0.37-0.07c-0.28-0.25-0.53-0.54-0.79-0.81c-0.21-0.21-0.17-0.34,0.05-0.55
		c1.93-1.79,3.84-3.59,5.76-5.39c0.36-0.34,0.71-0.68,1.07-1.02c0.42-0.39,0.44-0.39,0.86,0.03c0.2,0.2,0.38,0.43,0.6,0.61
		c0.29,0.24,0.22,0.42-0.03,0.64c-0.63,0.57-1.25,1.15-1.87,1.73c-0.12,0.12-0.26,0.23-0.37,0.35c-0.22,0.25-0.16,0.44,0.16,0.44
		c1.09,0,2.19,1.19,2.42,2.31C232.41,223.5,232.41,223.63,232.42,223.74z M229.05,222.07c-1.01-0.13-2.48,1.47-2.6,2.36
		c-0.12,0.92,0.84,1.88,1.83,1.5c0.96-0.36,1.65-1,2.09-1.9C230.85,223.06,230.16,222.06,229.05,222.07z"/>
	<path class="st1" d="M320.53,241.96c-0.19-1.98,2-3.17,3.3-2.88c0.15,0.03,0.31-0.01,0.47-0.02c-0.04-0.16-0.07-0.32-0.14-0.47
		c-0.41-0.85-0.83-1.69-1.25-2.54c-0.12-0.25-0.06-0.44,0.18-0.56c0.34-0.17,0.68-0.33,1.02-0.49c0.25-0.11,0.41-0.05,0.54,0.22
		c0.61,1.3,1.22,2.59,1.85,3.88c0.73,1.51,1.47,3.02,2.2,4.54c0.26,0.53,0.26,0.53-0.27,0.79c-0.2,0.1-0.4,0.21-0.61,0.31
		c-0.25,0.12-0.52,0.31-0.7-0.11c0-0.01-0.3,0.03-0.33,0.11c-0.49,1.04-1.42,1.44-2.44,1.64c-0.74,0.14-1.42-0.15-1.98-0.64
		C321.26,244.73,320.66,243.45,320.53,241.96z M324.48,244.67c0.92-0.01,1.58-0.7,1.57-1.49c-0.02-1.08-0.46-1.98-1.38-2.6
		c-0.52-0.36-1.07-0.36-1.6-0.03c-0.48,0.3-0.72,0.94-0.54,1.56c0.16,0.54,0.33,1.09,0.62,1.57
		C323.48,244.23,323.98,244.65,324.48,244.67z"/>
	<path class="st1" d="M261.65,247.48c0.11-0.5,0.2-0.98,0.32-1.45c0.32-1.17,0.65-2.33,0.98-3.49c0.15-0.54,0.17-0.54,0.7-0.37
		c0.29,0.09,0.58,0.19,0.87,0.25c0.33,0.07,0.38,0.25,0.3,0.54c-0.29,1.02-0.59,2.03-0.87,3.05c-0.08,0.29-0.15,0.58-0.22,0.88
		c-0.16,0.69-0.01,1.15,0.47,1.45c0.48,0.29,1.19,0.23,1.61-0.25c0.33-0.37,0.61-0.83,0.77-1.3c0.34-1,0.59-2.03,0.86-3.05
		c0.09-0.33,0.26-0.43,0.58-0.34c0.34,0.1,0.69,0.21,1.03,0.3c0.27,0.07,0.36,0.2,0.27,0.5c-0.35,1.18-0.68,2.36-1.01,3.54
		c-0.24,0.85-0.51,1.7-0.73,2.56c-0.09,0.36-0.27,0.41-0.58,0.28c-0.21-0.08-0.43-0.14-0.65-0.2c-0.53-0.15-0.54-0.15-0.45-0.72
		c0.03-0.18-0.04-0.25-0.22-0.19c-0.29,0.1-0.56,0.22-0.85,0.31c-1.02,0.29-2.36-0.24-2.83-1.16
		C261.83,248.27,261.77,247.87,261.65,247.48z"/>
	<path class="st1" d="M359.5,206.04c0-0.1,0.04-0.2,0.01-0.27c-0.41-1.19,0.11-2.12,0.89-2.91c0.7-0.71,1.6-0.69,2.43-0.3
		c1.25,0.58,2.45,1.26,3.67,1.9c0.08,0.04,0.16,0.1,0.24,0.15c0.61,0.32,0.61,0.32,0.28,0.96c-0.12,0.23-0.27,0.46-0.37,0.7
		c-0.12,0.3-0.28,0.28-0.53,0.15c-1.11-0.6-2.23-1.2-3.35-1.79c-0.2-0.1-0.42-0.17-0.63-0.26c-0.45-0.18-0.85-0.13-1.18,0.25
		c-0.35,0.41-0.44,1.04-0.23,1.49c0.25,0.52,0.67,0.86,1.15,1.13c0.89,0.5,1.79,0.98,2.69,1.46c0.59,0.32,0.59,0.32,0.28,0.89
		c-0.13,0.25-0.27,0.5-0.39,0.75c-0.13,0.27-0.3,0.35-0.59,0.19c-1.82-1-3.65-1.98-5.48-2.98c-0.44-0.24-0.44-0.24-0.21-0.67
		c0.08-0.15,0.17-0.3,0.25-0.45C358.8,205.75,358.8,205.75,359.5,206.04z"/>
	<path class="st1" d="M313.69,243.65c0.07-0.09,0.16-0.16,0.21-0.26c0.45-0.89,1.27-1.28,2.18-1.46c0.79-0.16,1.48,0.14,1.97,0.76
		c0.31,0.39,0.57,0.85,0.75,1.32c0.47,1.23,0.88,2.49,1.33,3.73c0.1,0.26,0.04,0.39-0.2,0.48c-0.36,0.13-0.72,0.23-1.06,0.39
		c-0.29,0.14-0.42,0.04-0.51-0.22c-0.22-0.6-0.43-1.21-0.66-1.81c-0.26-0.71-0.51-1.42-0.81-2.12c-0.29-0.66-0.83-0.95-1.38-0.83
		c-0.52,0.12-1.07,0.75-1.03,1.35c0.03,0.58,0.14,1.16,0.31,1.72c0.27,0.88,0.61,1.75,0.95,2.61c0.1,0.27,0.01,0.39-0.21,0.48
		c-0.32,0.13-0.63,0.27-0.95,0.39c-0.31,0.11-0.54,0.05-0.66-0.31c-0.47-1.38-0.95-2.75-1.44-4.12c-0.21-0.58-0.42-1.17-0.67-1.74
		c-0.12-0.28-0.06-0.43,0.21-0.53c0.18-0.07,0.35-0.14,0.53-0.2C313.27,243.06,313.27,243.06,313.69,243.65z"/>
	<path class="st1" d="M346,223.26c0.77,0,1.32,0.21,1.76,0.62c0.72,0.67,1.4,1.38,2.1,2.08c0.4,0.4,0.8,0.8,1.22,1.18
		c0.26,0.23,0.28,0.42-0.01,0.63c-0.18,0.13-0.36,0.28-0.5,0.46c-0.23,0.3-0.42,0.38-0.73,0.07c-0.22-0.22-0.34-0.14-0.37,0.19
		c-0.09,1.12-0.67,1.9-1.69,2.35c-0.9,0.4-1.74,0.28-2.41-0.36c-0.66-0.62-0.89-1.67-0.42-2.51c0.34-0.62,0.85-1.15,1.28-1.71
		c0.08-0.1,0.19-0.18,0.29-0.28c0.51-0.49,0.44-0.74-0.23-0.96c-0.4-0.13-0.75-0.06-1.06,0.2c-0.59,0.49-1.07,1.06-1.26,1.83
		c-0.13,0.53-0.22,0.54-0.6,0.16c-0.89-0.9-0.91-0.57-0.2-1.75c0.5-0.83,1.2-1.46,2.03-1.95C345.46,223.36,345.82,223.31,346,223.26
		z M348.53,227.98c0.01-0.65-0.17-1.07-0.52-1.41c-0.07-0.07-0.28-0.13-0.32-0.09c-0.54,0.47-1.1,0.94-1.33,1.65
		c-0.12,0.37-0.08,0.74,0.28,1.02c0.27,0.21,0.54,0.37,0.87,0.2C348.11,229.02,348.5,228.54,348.53,227.98z"/>
	<path class="st1" d="M286.13,249.5c0,1.3,0.07,1.1-1.1,1.03c-1.11-0.06-2.22-0.2-3.33-0.3c-0.49-0.04-0.55,0.06-0.41,0.54
		c0.28,1,1.23,1.37,2.14,1.3c0.54-0.04,1.07-0.21,1.59-0.34c0.42-0.11,0.45-0.09,0.42,0.35c-0.08,1.08-0.18,1.23-1.23,1.38
		c-0.88,0.12-1.78,0.06-2.63-0.26c-1.3-0.49-2-1.44-2.13-2.82c-0.14-1.47,0.2-2.79,1.39-3.76c0.35-0.28,0.83-0.5,1.27-0.56
		c1.32-0.2,2.54,0.02,3.4,1.17C286.01,247.91,286.11,248.7,286.13,249.5z M283.8,249.12c0.27,0,0.61,0.13,0.61-0.34
		c0-0.71-0.59-1.31-1.33-1.37c-0.77-0.07-1.51,0.41-1.67,1.07c-0.06,0.26-0.04,0.42,0.31,0.44
		C282.41,248.96,283.11,249.05,283.8,249.12z"/>
	<path class="st1" d="M238.63,235.76c0.18-1.53,0.92-2.71,2.23-3.56c2.1-1.38,4.72,0.57,4.95,2.28c0.11,0.8-0.14,1.5-0.46,2.18
		c-0.58,1.23-0.6,1.21-1.72,0.44c-0.86-0.59-1.73-1.16-2.6-1.73c-0.39-0.26-0.56-0.18-0.63,0.29c-0.16,1.04,0.29,1.7,1.32,2.19
		c0.49,0.23,1.04,0.33,1.58,0.43c0.29,0.05,0.33,0.12,0.19,0.35c-0.17,0.27-0.32,0.57-0.54,0.79c-0.13,0.13-0.41,0.21-0.59,0.17
		c-1.22-0.27-2.26-0.89-3.03-1.87C238.89,237.16,238.62,236.51,238.63,235.76z M244.26,234.67c-0.01-0.6-0.35-0.97-0.85-1.24
		c-0.63-0.34-1.2-0.24-1.74,0.2c-0.32,0.26-0.31,0.41,0.04,0.64c0.5,0.34,1.01,0.66,1.52,1c0.73,0.49,0.93,0.39,1.03-0.48
		C244.26,234.74,244.26,234.7,244.26,234.67z"/>
	<path class="st1" d="M328.62,237.88c-0.03-1.28,0.54-2.15,1.47-2.77c0.58-0.39,1.24-0.67,1.96-0.68c0.98-0.01,1.72,0.51,2.34,1.21
		c0.25,0.28,0.47,0.59,0.69,0.9c0.26,0.35,0.25,0.42-0.12,0.65c-1.03,0.64-2.07,1.26-3.09,1.9c-0.21,0.13-0.37,0.34-0.55,0.52
		c0.23,0.18,0.44,0.43,0.7,0.53c0.59,0.24,1.18,0.18,1.73-0.17c0.61-0.39,1.06-0.9,1.44-1.51c0.23-0.37,0.29-0.36,0.53,0.01
		c0.62,1,0.64,1.06-0.18,1.86c-0.92,0.89-2,1.47-3.31,1.52c-0.75,0.03-1.42-0.26-1.96-0.77
		C329.3,240.19,328.69,239.11,328.62,237.88z M330.21,237.56c0.02,0.09,0.06,0.24,0.09,0.38c0.11,0.44,0.18,0.48,0.56,0.25
		c0.66-0.4,1.31-0.82,1.97-1.22c0.21-0.13,0.26-0.26,0.11-0.45c-0.38-0.51-1.03-0.69-1.67-0.47
		C330.67,236.25,330.2,236.9,330.21,237.56z"/>
	<path class="st1" d="M357.51,209.96c1.08,0.08,1.95,0.59,2.8,1.13c0.22,0.14,0.05,0.32-0.06,0.48c-0.72,1.04-1.43,2.09-2.15,3.14
		c-0.34,0.5-0.27,0.69,0.32,0.79c0.56,0.1,1.05-0.07,1.46-0.46c0.67-0.63,0.96-1.43,1.07-2.31c0.06-0.47,0.06-0.47,0.46-0.25
		c0.97,0.55,1.02,0.69,0.62,1.76c-0.3,0.79-0.74,1.49-1.37,2.06c-1.04,0.94-2.22,1.21-3.51,0.63c-1.25-0.55-2.22-1.4-2.66-2.77
		c-0.17-0.52-0.13-1,0-1.5c0.27-0.98,0.85-1.74,1.7-2.25C356.58,210.17,357.06,210.1,357.51,209.96z M357.33,211.62
		c-0.62-0.03-1.14,0.41-1.38,1.13c-0.17,0.51,0.08,1.31,0.49,1.58c0.23,0.16,0.33,0.02,0.44-0.15c0.34-0.52,0.7-1.03,1.05-1.54
		c0.51-0.74,0.42-0.92-0.49-1.01C357.4,211.63,357.36,211.62,357.33,211.62z"/>
	<path class="st1" d="M222.39,214.35c0.34-0.31,0.64-0.6,0.97-0.84c0.12-0.09,0.38-0.11,0.5-0.04c1.08,0.7,2,1.54,2.45,2.8
		c0.41,1.14-0.05,1.92-0.92,2.68c-1.05,0.92-2.15,1.78-3.23,2.67c-0.39,0.32-0.39,0.31-0.69-0.09c-0.12-0.15-0.26-0.28-0.36-0.43
		c-0.17-0.25-0.46-0.48-0.02-0.79c0.19-0.14,0.11-0.33-0.17-0.37c-0.99-0.14-1.65-0.74-2.07-1.6c-0.46-0.94-0.33-1.84,0.33-2.51
		c0.69-0.71,1.75-0.89,2.61-0.43c0.79,0.42,1.33,1.1,1.89,1.77c0.16,0.19,0.38,0.33,0.57,0.49c0.18-0.27,0.46-0.53,0.52-0.83
		c0.06-0.26-0.07-0.6-0.21-0.85c-0.33-0.59-0.83-1.02-1.46-1.28C222.86,214.6,222.65,214.48,222.39,214.35z M222.04,219.08
		c0.2-0.09,0.58-0.24,0.95-0.42c0.08-0.04,0.17-0.26,0.14-0.31c-0.45-0.65-0.92-1.32-1.72-1.56c-0.64-0.2-1.34,0.5-1.16,1.12
		C220.42,218.53,221.18,219.09,222.04,219.08z"/>
	<path class="st1" d="M252.59,237.55c0.46,0.13,0.92,0.2,1.31,0.39c0.62,0.31,1.2,0.7,1.79,1.07c0.07,0.05,0.16,0.21,0.13,0.26
		c-0.18,0.33-0.37,0.66-0.59,0.97c-0.02,0.04-0.23-0.01-0.32-0.07c-0.37-0.23-0.72-0.49-1.08-0.72c-0.11-0.07-0.24-0.12-0.37-0.14
		c-0.35-0.07-0.71-0.09-0.91,0.26c-0.21,0.36,0.01,0.63,0.26,0.89c0.41,0.42,0.85,0.82,1.17,1.3c0.83,1.24-0.05,2.95-1.53,3.13
		c-1.32,0.16-2.33-0.47-3.32-1.17c-0.56-0.4-0.55-0.41-0.2-1.03c0.42-0.73,0.42-0.73,1.05-0.13c0.45,0.43,0.94,0.76,1.6,0.74
		c0.61-0.01,0.92-0.53,0.61-1.06c-0.08-0.14-0.2-0.27-0.32-0.39c-0.32-0.34-0.65-0.68-0.98-1.02c-0.82-0.84-0.43-2.31,0.61-2.91
		C251.84,237.74,252.22,237.68,252.59,237.55z"/>
	<path class="st1" d="M256.23,245.49c0.19-0.51,0.44-1.22,0.71-1.92c0.22-0.58,0.46-1.16,0.69-1.74c0.11-0.28,0.05-0.46-0.25-0.57
		c-0.26-0.1-0.66-0.22-0.7-0.39c-0.06-0.27,0.13-0.6,0.23-0.9c0.11-0.32,0.3-0.4,0.61-0.21c0.14,0.09,0.3,0.17,0.46,0.21
		c0.24,0.07,0.4,0.03,0.52-0.26c0.45-1.07,0.26-0.88,1.35-0.86c0.11,0,0.23,0.01,0.34,0.02c0.61,0.04,0.66,0.11,0.43,0.67
		c-0.13,0.31-0.24,0.64-0.38,0.94c-0.1,0.22-0.06,0.35,0.17,0.44c0.28,0.11,0.56,0.23,0.84,0.35c0.09,0.04,0.25,0.09,0.25,0.1
		c-0.1,0.39-0.18,0.79-0.34,1.15c-0.11,0.26-0.34,0.15-0.53,0.02c-0.08-0.05-0.16-0.1-0.25-0.14c-0.76-0.31-0.84-0.25-1.11,0.55
		c-0.2,0.57-0.46,1.12-0.68,1.68c-0.12,0.32-0.25,0.63-0.32,0.96c-0.11,0.5,0.13,0.84,0.63,0.97c0.15,0.04,0.31,0.04,0.44,0.11
		c0.09,0.05,0.2,0.21,0.18,0.29c-0.09,0.31-0.2,0.61-0.35,0.89c-0.05,0.1-0.24,0.2-0.35,0.18c-0.77-0.14-1.5-0.38-2.06-0.98
		C256.37,246.68,256.27,246.21,256.23,245.49z"/>
	<path class="st1" d="M344.96,233.24c-0.05,0.09-0.08,0.19-0.15,0.25c-0.34,0.3-0.68,0.6-1.04,0.88c-0.21,0.16-0.33-0.02-0.46-0.17
		c-0.67-0.82-1.35-1.63-2.03-2.44c-1.32-1.58-2.64-3.16-3.97-4.74c-0.36-0.42-0.37-0.42,0.06-0.78c0.24-0.21,0.47-0.44,0.71-0.65
		c0.21-0.19,0.38-0.23,0.61,0.05c1.02,1.26,2.07,2.5,3.11,3.75c0.99,1.19,1.99,2.37,2.98,3.56
		C344.86,233.03,344.9,233.13,344.96,233.24z"/>
	<path class="st1" d="M251.66,233.44c-0.06,0.12-0.12,0.23-0.19,0.35c-1.54,2.67-3.07,5.33-4.61,8c-0.31,0.54-0.31,0.54-0.84,0.22
		c-0.24-0.15-0.49-0.29-0.74-0.42c-0.27-0.14-0.33-0.31-0.17-0.59c1.59-2.74,3.17-5.49,4.75-8.24c0.15-0.27,0.29-0.36,0.57-0.17
		c0.31,0.21,0.65,0.38,0.98,0.56c0.12,0.06,0.24,0.1,0.37,0.15C251.75,233.34,251.71,233.39,251.66,233.44z"/>
	<path class="st1" d="M221.42,209.56c-0.13,0.1-0.24,0.19-0.35,0.29c-0.12,0.1-0.23,0.2-0.34,0.31c0.15,0.05,0.3,0.13,0.45,0.14
		c0.7,0.05,1.19,0.45,1.59,0.98c0.14,0.18,0.13,0.35-0.06,0.49c-0.37,0.26-0.74,0.52-1.12,0.77c-0.18,0.11-0.32,0.05-0.41-0.14
		c-0.08-0.17-0.14-0.35-0.24-0.51c-0.3-0.46-0.72-0.63-1.27-0.54c-0.71,0.12-1.3,0.5-1.89,0.87c-0.62,0.39-1.24,0.8-1.85,1.22
		c-0.28,0.2-0.44,0.19-0.6-0.16c-0.13-0.29-0.35-0.54-0.54-0.8c-0.22-0.29-0.16-0.5,0.14-0.7c1.75-1.12,3.5-2.25,5.24-3.39
		c0.28-0.18,0.43-0.14,0.58,0.13c0.15,0.26,0.33,0.51,0.5,0.76C221.32,209.36,221.36,209.44,221.42,209.56z"/>
	<path class="st1" d="M340.3,236.95c-0.05,0.07-0.1,0.16-0.16,0.21c-0.3,0.23-0.61,0.44-0.91,0.67c-0.24,0.19-0.43,0.17-0.62-0.08
		c-1.15-1.56-2.32-3.12-3.48-4.68c-0.02-0.03-0.04-0.07-0.06-0.1c-0.44-0.6-0.44-0.6,0.18-1.08c0.08-0.06,0.15-0.12,0.22-0.18
		c0.43-0.31,0.42-0.31,0.79,0.07c0.08,0.09,0.21,0.13,0.32,0.19c0.04-0.12,0.11-0.23,0.11-0.35c0-0.67,0.29-1.18,0.79-1.62
		c0.3-0.27,0.49-0.19,0.7,0.07c0.24,0.31,0.48,0.63,0.71,0.95c0.04,0.06,0.02,0.21-0.04,0.27c-0.09,0.09-0.22,0.14-0.33,0.21
		c-0.77,0.52-0.99,1.25-0.52,2.06c0.43,0.73,0.95,1.4,1.44,2.1c0.22,0.31,0.46,0.6,0.68,0.9
		C340.19,236.67,340.23,236.81,340.3,236.95z"/>
	<path class="st1" d="M311.29,250.94c-0.07,0.07-0.15,0.24-0.28,0.28c-0.4,0.12-0.81,0.2-1.21,0.28c-0.21,0.04-0.32-0.03-0.39-0.28
		c-0.53-2.06-1.08-4.12-1.64-6.18c-0.09-0.32,0.11-0.39,0.29-0.45c0.39-0.13,0.8-0.21,1.21-0.3c0.25-0.06,0.32,0.11,0.38,0.31
		c0.35,1.35,0.69,2.7,1.05,4.05c0.17,0.64,0.35,1.27,0.53,1.91C311.24,250.66,311.25,250.75,311.29,250.94z"/>
	<path class="st0" d="M306.75,220.36c-0.36,0-0.72-0.01-1.08,0c-0.24,0.01-0.35-0.11-0.35-0.34c0-0.68,0-1.36,0-2.05
		c0-0.26,0.13-0.37,0.39-0.36c0.68,0.01,1.36,0.01,2.05,0c0.27,0,0.37,0.11,0.37,0.37c-0.01,0.68-0.01,1.36,0,2.05
		c0,0.25-0.11,0.34-0.34,0.33C307.43,220.36,307.09,220.36,306.75,220.36z"/>
	<path class="st0" d="M317.66,218.99c0-0.32,0.01-0.64,0-0.97c-0.01-0.28,0.07-0.42,0.38-0.41c0.66,0.02,1.33,0.02,1.99,0
		c0.31-0.01,0.39,0.14,0.38,0.41c-0.01,0.64-0.01,1.29,0,1.93c0,0.28-0.08,0.41-0.39,0.41c-0.66-0.02-1.33-0.02-1.99,0
		c-0.32,0.01-0.39-0.13-0.38-0.41C317.67,219.64,317.66,219.32,317.66,218.99z"/>
	<path class="st1" d="M292.13,246.93c0.58,0.01,1.1,0.5,1.06,1.1c-0.04,0.66-0.4,1.01-1.1,1.06c-0.6,0.04-1.08-0.49-1.08-1.13
		C291,247.38,291.51,246.92,292.13,246.93z"/>
	<path class="st1" d="M308.5,241.29c0.1,0.09,0.22,0.18,0.33,0.29c0.02,0.02,0.03,0.07,0.04,0.1c0.45,1.21,0.41,1.3-0.82,1.65
		c-0.67,0.19-0.71,0.17-0.88-0.48c-0.27-1.03-0.27-1.03,0.73-1.35C308.07,241.44,308.25,241.38,308.5,241.29z"/>
	<path class="st1" d="M290.6,98.76c0.03,0.04,0.06,0.07,0.1,0.11c-0.03,0.01-0.05,0.02-0.08,0.03c0-0.05-0.01-0.1-0.01-0.15
		C290.61,98.76,290.6,98.76,290.6,98.76z"/>
</g>
</svg>
